<svg fill="#ffc800" version="1.1" id="Layer_1" xmlns="http://www.w3.org/2000/svg" viewBox="55 50 400 395" width="450" height="450" xml:space="preserve">
    <rect x="-49.6" y="-49.6" width="595.20" height="595.20" rx="0" fill="#006102"/>
    <path d="M40,449.472V364.28L58.424,352H88v-16H53.576L24,355.72v93.752C14.704,452.784,8,461.584,8,472c0,13.232,10.768,24,24,24 s24-10.768,24-24C56,461.584,49.288,452.784,40,449.472z M32,480c-4.416,0-8-3.584-8-8c0-4.416,3.584-8,8-8s8,3.584,8,8 C40,476.416,36.416,480,32,480z"/>
    <path d="M46.528,320H88v-16H46.528c-3.312-9.288-12.112-16-22.528-16c-13.232,0-24,10.768-24,24s10.768,24,24,24 C34.416,336,43.216,329.288,46.528,320z M16,312c0-4.416,3.584-8,8-8s8,3.584,8,8c0,4.416-3.584,8-8,8S16,316.416,16,312z"/>
    <path d="M24,272c10.416,0,19.216-6.712,22.528-16H88v-16H46.528c-3.312-9.296-12.112-16-22.528-16c-13.232,0-24,10.768-24,24 S10.768,272,24,272z M24,240c4.416,0,8,3.584,8,8s-3.584,8-8,8s-8-3.584-8-8C16,243.584,19.584,240,24,240z"/>
    <rect x="56" y="272" width="32" height="16"/>
    <rect x="56" y="208" width="32" height="16"/>
    <rect y="176" width="88" height="16"/>
    <path d="M60.688,160H88v-16H67.312L48,124.688v-14.16C57.288,107.216,64,98.416,64,88c0-13.232-10.768-24-24-24S16,74.768,16,88 c0,10.416,6.704,19.216,16,22.528v20.784L60.688,160z M40,80c4.416,0,8,3.584,8,8s-3.584,8-8,8s-8-3.584-8-8S35.584,80,40,80z"/>
    <polygon points="144,67.312 144,88 160,88 160,60.688 131.312,32 0,32 0,48 124.688,48 "/>
    <polygon points="176,35.312 176,88 192,88 192,28.688 163.312,0 0,0 0,16 156.688,16 "/>
    <rect x="304" width="16" height="88"/>
    <path d="M240,46.528V88h16V59.312l16,16V88h16V68.688L262.392,43.08C268.192,38.696,272,31.816,272,24c0-13.232-10.768-24-24-24 s-24,10.768-24,24C224,34.416,230.704,43.216,240,46.528z M248,16c4.416,0,8,3.584,8,8s-3.584,8-8,8s-8-3.584-8-8 S243.584,16,248,16z"/>
    <path d="M352,51.312L371.312,32h78.16c2.416,6.776,7.752,12.112,14.528,14.528v110.16L444.688,176H408v16h43.312L480,163.312 V46.528c9.288-3.312,16-12.112,16-22.528c0-13.232-10.768-24-24-24c-10.416,0-19.216,6.712-22.528,16h-84.784L336,44.688V88h16 V51.312z M472,16c4.416,0,8,3.584,8,8s-3.584,8-8,8c-4.416,0-8-3.584-8-8S467.584,16,472,16z"/>
    <path d="M414.08,97.392l17.92,17.92v9.376L412.688,144H408v16h11.312L448,131.312v-22.624L419.312,80h-4.784 c-3.312-9.288-12.112-16-22.528-16c-13.232,0-24,10.768-24,24s10.768,24,24,24C401.904,112,410.416,105.968,414.08,97.392z M392,96c-4.416,0-8-3.584-8-8s3.584-8,8-8c4.416,0,8,3.584,8,8S396.416,96,392,96z"/>
    <rect x="408" y="208" width="88" height="16"/>
    <path d="M480,449.472V268.688L451.312,240H408v16h36.688L464,275.312v41.376L451.312,304H408v16h36.688L464,339.312v110.16 c-9.296,3.312-16,12.112-16,22.528c0,13.232,10.768,24,24,24s24-10.768,24-24C496,461.584,489.288,452.784,480,449.472z M472,480 c-4.416,0-8-3.584-8-8c0-4.416,3.584-8,8-8c4.416,0,8,3.584,8,8C480,476.416,476.416,480,472,480z"/>
    <rect x="408" y="272" width="32" height="16"/>
    <path d="M448,364.688L419.312,336H408v16h4.688L432,371.312V416h-80v-8h-16v24h96v12.688L412.688,464h-14.16 c-3.312-9.288-12.112-16-22.528-16c-13.232,0-24,10.768-24,24s10.768,24,24,24c10.416,0,19.216-6.712,22.528-16h20.784 L448,451.312V364.688z M376,480c-4.416,0-8-3.584-8-8c0-4.416,3.584-8,8-8c4.416,0,8,3.584,8,8C384,476.416,380.416,480,376,480z "/>
    <path d="M160,408h-16v8h-41.472c-3.312-9.288-12.112-16-22.528-16c-13.232,0-24,10.768-24,24s10.768,24,24,24 c10.416,0,19.216-6.712,22.528-16H160V408z M80,432c-4.416,0-8-3.584-8-8c0-4.416,3.584-8,8-8s8,3.584,8,8 C88,428.416,84.416,432,80,432z"/>
    <rect x="304" y="408" width="16" height="88"/>
    <rect x="272" y="408" width="16" height="88"/>
    <path d="M240,420.688l-16,16V408h-16v41.472c-9.296,3.312-16,12.112-16,22.528c0,13.232,10.768,24,24,24s24-10.768,24-24 c0-7.816-3.808-14.696-9.608-19.08L256,427.312V408h-16V420.688z M216,480c-4.416,0-8-3.584-8-8c0-4.416,3.584-8,8-8s8,3.584,8,8 C224,476.416,220.416,480,216,480z"/>
    <polygon points="192,408 176,408 176,428.688 152,452.688 152,496 168,496 168,459.312 192,435.312 "/>
    <path d="M336,392h16v-16h24v-24h16v-16h-16v-16h16v-16h-16v-16h16v-16h-16v-16h16v-16h-16v-16h16v-16h-16v-16h16v-16h-16v-16h16 v-16h-16v-24h-24v-16h-16v16h-16v-16h-16v16h-16v-16h-16v16h-16v-16h-16v16h-16v-16h-16v16h-16v-16h-16v16h-16v-16h-16v16h-3.312 L120,140.688V144h-16v16h16v16h-16v16h16v16h-16v16h16v16h-16v16h16v16h-16v16h16v16h-16v16h16v16h-16v16h16v24h24v16h16v-16h16 v16h16v-16h16v16h16v-16h16v16h16v-16h16v16h16v-16h16v16h16v-16h16V392z M136,360V147.312L147.312,136H360v224H136z" fill="#eeeeee"/>
    <path d="M376,376 h-256 v-240 l18,-18 h240" fill="black"/>
    <path d="M3680 3765 l0 -485 -590 0 -590 0 0 -485 0 -485 -90 0 -90 0 0 485 0 485 -975 0 -975 0 0 -985 0 -985 480 0 480 0 0 -485 0 -485 983 2 982 3 3 483 2 482 585 0 585 0 0 485 0 485 90 0 90 0 0 -485 0 -485 975 0 975 0 0 985 0 985 -480 0 -480 0 0 485 0 485 -980 0 -980 0 0 -485z" transform="scale(0.025) translate(6500 5900)" fill="white"/>
    <text fill="white" x="150" y="330" font-size="60" font-family="monospace" font-weight="bold">MIC-UE</text>
</svg>